<svg width="490" height="553" viewBox="0 0 490 553" fill="none" xmlns="http://www.w3.org/2000/svg">
<path d="M248 0.217989C233.6 1.55132 222.8 3.81802 205.333 9.41802C195.067 12.7514 185.867 15.418 184.933 15.418C184 15.418 178.8 17.5514 173.333 20.0847C165.867 23.6847 160.933 27.418 152.667 35.818C129.6 59.018 114.667 89.5514 111.333 120.085C110 132.618 106.933 142.085 101.333 150.751C93.4667 162.885 92 167.685 90.2667 185.285C88 209.285 88.4 223.418 92 238.085C94.1333 246.351 95.2 254.885 95.2 262.751C95.2 273.951 94.8 275.685 89.4667 288.751C82.1333 306.351 81.2 315.551 85.3333 325.951L88.1333 333.285L84.6667 340.885C81.4667 348.085 81.3333 348.885 83.2 353.285C84.6667 356.751 84.8 358.218 83.6 359.151C82.6667 359.818 70 366.085 55.3333 373.018L28.6667 385.685L25.0667 392.885C23.0667 396.885 20.5333 403.285 19.6 407.151C18 413.418 17.0667 414.618 10.5333 419.018C2 424.618 0 426.885 0 431.018V434.218L5.73333 430.351C13.2 425.151 32.1333 415.685 41.2 412.618C55.7333 407.551 70.9333 409.818 90.2667 420.085C111.2 431.151 137.733 453.951 155.6 476.085C165.867 488.885 183.2 514.351 189.333 525.685C195.6 537.018 196 535.285 189.867 523.285C180.4 504.351 168 486.351 149.333 464.085C143.467 457.151 139.067 451.418 139.467 451.418C140 451.418 144.533 454.751 149.467 458.885C169.467 475.285 187.467 499.418 204.133 532.751C208.4 541.151 211.867 547.418 212 546.751C212 544.218 196.4 513.418 189.333 502.085C177.6 483.285 167.067 470.218 149.467 452.751C117.067 420.485 81.0667 400.751 55.2 400.751C49.3333 400.751 44.4 401.951 36 405.418C29.8667 407.951 24.5333 409.818 24.4 409.551C24.1333 409.418 26 405.285 28.2667 400.618C33.2 391.018 30.8 392.485 68.2667 374.751L89.2 364.751L104.533 366.751C133.333 370.485 167.067 381.018 228.933 405.418C267.333 420.618 263.2 416.618 264.8 439.951L265.733 453.151L262 452.218C259.867 451.685 245.2 446.218 229.467 440.085C213.6 433.951 200.533 429.018 200.4 429.285C199.733 429.818 225.867 441.285 247.333 449.685L266.267 457.151L267.733 465.951C268.533 470.751 269.6 481.018 270 488.751C270.533 496.485 271.733 507.018 272.667 512.218C274.667 522.751 283.867 553.285 284.8 552.351C285.067 552.085 283.867 545.685 282 538.085C275.867 513.818 274.267 499.418 275.2 478.218C275.6 467.551 276.267 458.751 276.533 458.485C276.8 458.218 283.6 458.885 291.467 460.085C301.067 461.551 309.2 461.951 315.333 461.418C324.533 460.485 346.667 454.218 350.667 451.285C352.267 450.085 352.267 449.951 350.133 450.618C338.4 454.485 290.667 458.351 279.867 456.218L275.2 455.418L272.933 440.351C271.733 432.218 270.533 422.085 270.133 418.085C269.867 413.685 267.6 406.218 264.667 399.418C252.667 371.951 248.267 360.751 249.2 360.751C251.333 360.751 276.267 387.818 293.467 408.751L298.133 414.485L309.467 414.351C315.733 414.218 323.2 413.285 326.533 412.085C340.933 407.018 362.133 390.085 370.667 376.618C373.067 373.018 375.2 370.085 375.6 370.085C377.333 370.085 374.8 390.085 372.133 396.885C368.267 407.018 362 413.951 348 423.418C333.6 433.418 331.733 436.085 341.733 433.151C345.6 432.085 352.8 429.018 357.733 426.485C362.667 423.818 366.933 421.951 367.2 422.218C367.467 422.485 369.6 426.485 372 431.018C374.8 436.485 376.667 442.618 377.467 448.751C378.667 459.018 382.267 469.818 394.4 500.085C398.8 511.018 403.467 523.951 404.8 528.618C406.133 533.418 407.333 536.618 407.733 535.685C408.533 533.018 401.6 507.418 396 492.751C388.667 473.685 388.267 471.818 386 442.085C384.933 427.818 383.067 412.485 382 408.085C378.667 394.485 379.2 393.818 386.933 402.085C396.667 412.485 400.4 421.418 399.733 431.818C399.467 436.885 397.867 443.151 395.6 448.085L392 456.085L396 451.418C402.267 444.218 404.8 436.351 403.067 429.551C401.6 424.618 401.733 424.351 403.6 426.751C406.933 431.151 410.667 439.018 421.6 464.085C427.333 477.285 432 487.285 432 486.351C432 485.418 429.067 475.818 425.467 465.018C415.333 434.751 403.333 410.751 392.933 399.685L388.8 395.418L397.067 398.218C406.267 401.285 412.4 407.151 418 418.085C426.267 434.485 439.733 478.218 445.467 507.418C447.733 519.151 447.867 519.418 447.333 511.418C446.133 497.151 441.333 475.818 435.067 456.751C431.867 446.885 428.933 437.818 428.533 436.751C427.467 432.885 436.667 452.218 439.6 460.085C441.733 465.685 442.4 466.618 441.867 463.418C440.533 455.285 434.533 439.151 429.333 429.151L424.4 419.551L429.2 421.551C444.267 427.818 465.333 440.218 487.067 455.418L489.867 457.418L487.333 452.885C480.267 440.618 462.8 427.685 436.533 415.285C424 409.285 418 405.685 413.467 401.018C407.467 394.885 402.133 392.351 388.267 388.751L382.667 387.285L382.8 379.685C382.933 375.551 382.8 366.218 382.8 359.018C382.667 347.418 382.933 345.418 386.267 339.018C389.2 333.551 389.867 330.218 390 322.751C390.133 315.151 391.467 309.151 397.733 290.218C407.733 260.085 414 235.685 416.667 216.751C423.467 168.085 419.2 130.485 403.333 98.7514C394.933 81.9514 371.067 47.9514 359.333 35.9514C344 20.4847 320.667 8.88466 293.733 3.55132C280.4 0.884655 258.8 -0.582011 248 0.217989ZM296.667 8.61802C317.733 14.0847 340.533 25.018 346.933 32.8847C349.333 35.9514 355.733 43.2847 361.2 49.2847C383.6 73.9514 396.267 93.1514 404.533 114.751C412.133 134.885 413.867 145.951 413.867 174.751C413.867 202.751 412 218.618 405.333 245.818C400.267 266.751 385.733 310.751 383.2 312.885C380.267 315.285 380.8 312.218 386.133 296.751C397.867 261.951 406.267 228.618 409.333 204.751C411.067 190.218 411.067 159.818 409.2 146.618C405.467 119.151 389.2 86.3514 368.8 64.8847C332.8 27.1514 281.067 20.7514 238.4 48.618C214.933 63.9514 206.133 81.418 198.133 128.751C194.8 147.951 194 150.618 186.533 166.351C177.2 185.685 177.333 183.285 184.267 210.751C186.8 221.285 190 229.951 193.467 236.218C197.733 244.085 198.667 247.018 198.667 253.018C198.667 259.018 199.867 262.885 205.2 274.218C208.667 281.818 213.867 294.085 216.533 301.418C219.333 308.751 222.4 316.218 223.467 318.085C226.533 323.285 208.667 304.351 195.6 288.751C189.2 281.018 182.8 272.351 181.333 269.285C177.733 261.951 177.733 247.685 181.467 234.085L184.267 223.818L180.133 206.351C177.867 196.751 176 187.018 176 184.885C176 182.751 178.4 174.751 181.333 167.285C184.267 159.818 186.4 153.418 186.133 153.151C185.067 152.085 173.333 181.951 173.333 185.551C173.333 187.685 174.533 194.751 176 201.285C179.467 217.018 179.333 222.218 175.2 234.218C171.6 244.751 169.2 264.751 170.933 270.885C171.467 272.885 175.333 278.218 179.6 282.618C196.933 300.751 198.667 303.285 185.2 291.018C176 282.618 169.733 275.551 167.2 271.018L163.333 264.085L163.733 239.418C164.267 206.085 160.533 186.218 148.933 160.351C143.2 147.551 143.067 150.085 148.8 164.218C151.467 170.751 155.467 183.018 157.733 191.418C161.6 206.218 161.733 207.685 161.867 237.418C162 260.885 162.533 268.885 163.867 271.418C167.467 277.951 174.8 285.818 186.933 296.218C193.6 302.085 204.533 311.551 211.2 317.285L223.333 327.951L233.733 349.818C239.467 361.951 246 376.218 248.133 381.818C250.267 387.285 254.267 396.485 256.933 402.218C259.6 408.085 261.467 413.018 261.067 413.418C260.8 413.818 245.467 407.685 227.2 399.951C171.6 376.351 136.4 365.951 106.4 363.951L93.4667 363.018L97.0667 360.218C100.267 357.685 102.267 357.418 117.333 357.551C149.067 357.951 179.067 366.085 223.6 386.751C238.533 393.685 235.733 390.751 217.333 380.351C186.933 363.151 150.533 348.885 129.6 346.085C118.267 344.618 103.2 345.818 93.6 348.885C91.2 349.685 88.8 349.951 88.2667 349.418C87.8667 349.018 89.0667 345.685 91.0667 342.085C95.6 334.085 95.6 332.218 91.0667 321.418L87.4667 312.751L92.6667 297.551L97.7333 282.351L103.733 290.218C110.933 299.951 116.533 304.618 135.333 316.485C158 330.751 193.2 350.618 188 346.085C185.467 343.951 169.867 333.018 153.333 321.951C121.467 300.351 108.8 291.018 103.467 284.751C100.667 281.285 100.267 279.951 100.933 273.151C101.333 268.485 100.667 261.951 99.4667 256.751C98.4 252.085 97.7333 247.951 98 247.685C98.2667 247.285 98.9333 248.885 99.4667 250.885C101.2 257.951 106.8 267.685 113.067 274.351C118.133 279.818 143.6 298.085 146 298.085C146.4 298.085 143.067 293.285 138.533 287.285C130.667 277.018 124 266.485 124 264.351C124 263.818 125.733 263.418 128 263.418C133.733 263.418 141.867 255.551 145.2 246.885C155.2 220.218 143.467 174.218 124.4 165.818C116 162.085 110.133 163.951 102.8 172.351C99.7333 175.685 97.3333 177.551 97.3333 176.485C97.3333 172.618 101.2 163.418 105.333 157.418C113.333 145.818 117.333 135.151 118.667 122.218C119.467 115.551 120.533 107.551 121.2 104.485C128.267 73.6847 153.2 37.018 174.267 26.218C182.667 21.9514 182.8 22.8847 174.667 28.218C166.533 33.418 159.733 39.5514 160.667 40.4847C160.933 40.8847 162 40.4847 162.933 39.6847C165.867 37.2847 183.867 28.618 191.733 25.818C196 24.3514 204.4 22.7514 210.667 22.0847C216.933 21.5514 225.467 20.218 229.733 19.2847C237.467 17.5514 237.6 17.5514 245.867 21.9514C254 26.3514 254.133 26.4847 262.8 24.8847C275.6 22.7514 290.133 23.018 304.933 25.9514C323.467 29.5514 334.8 34.0847 352 44.618C355.067 46.4847 355.067 46.218 351.333 42.218C346.533 37.018 324 25.6847 312.4 22.7514C299.467 19.5514 279.067 17.9514 266.667 19.418C257.333 20.4847 254.933 20.3514 249.467 18.0847C245.867 16.7514 238 14.618 231.867 13.418C225.867 12.3514 220.533 11.1514 220.267 10.7514C219.867 10.4847 221.333 9.55136 223.467 8.61802C240.533 2.08469 270.533 2.08469 296.667 8.61802ZM313.067 40.0847C330 44.0847 344.4 53.6847 350 64.618C355.2 75.018 361.067 93.2847 364 108.085C367.333 125.951 367.333 128.351 364 129.418C362.533 129.951 350.133 129.285 336.267 128.085C317.067 126.485 310.533 125.418 308 123.551C306.133 122.218 300.267 112.351 294 99.9514C281.733 75.418 274.933 65.1514 264 53.9514L256.133 45.9514L259.733 44.4847C274.8 38.3514 297.733 36.4847 313.067 40.0847ZM262.8 56.7514C273.067 67.418 280 78.218 289.467 98.0847C303.067 126.618 303.067 126.618 308 129.018C313.2 131.418 359.467 136.218 364.933 134.751C366.667 134.351 368.667 132.618 369.333 130.885C370.8 126.751 365.6 98.4847 360.267 82.7514C358 76.0847 355.867 69.5514 355.333 68.0847C354.8 66.618 357.733 68.8847 361.867 73.1514C370.533 82.4847 378.8 97.5514 382.933 112.218C386.4 124.751 387.067 144.618 384.133 154.618C382.4 160.351 381.6 161.418 376.267 163.685C364 169.151 322 167.818 300 161.285C293.467 159.418 290.8 157.285 275.733 142.485L258.8 125.685L251.2 108.618C243.867 91.818 234.267 74.7514 229.2 69.2847C226.667 66.618 226.8 66.618 231.733 61.818C238.133 55.6847 249.067 48.7514 252.533 48.7514C254.133 48.7514 258.4 52.0847 262.8 56.7514ZM228 75.2847C229.467 77.5514 234.667 87.2847 239.333 97.018C254 127.018 254.133 127.151 272.933 145.285C282.667 154.485 292.267 162.751 294.267 163.551C313.467 170.885 366.667 173.018 378.667 166.751C384 164.085 387.467 158.085 388.667 150.218C389.067 146.885 389.867 141.951 390.4 139.418L391.2 134.751L392.133 139.418L392.933 144.085L393.2 139.551C393.2 137.151 392.4 131.551 391.2 127.151C390.133 122.751 389.467 118.885 389.733 118.485C390.667 117.685 396.933 134.085 398.533 141.818C399.333 145.685 400 152.618 400 157.285C400 164.351 399.467 166.218 396.667 169.285C392.8 173.418 382.533 178.485 372 181.285C368 182.351 365.733 183.285 367.2 183.285C372 183.551 386.133 179.151 391.333 175.818C394.267 173.951 398 170.885 399.6 169.018L402.667 165.418V169.151C402.667 171.285 402 174.085 401.333 175.551C398 181.551 377.2 188.218 356.8 189.551C337.2 190.885 300.8 185.151 249.733 172.751C224 166.351 219.6 166.218 212.533 170.885C193.467 183.551 192.133 206.618 209.867 216.751C222.4 224.085 251.867 232.218 296.933 240.751C304.4 242.218 305.067 242.618 303.6 244.885C301.6 248.085 297.2 249.685 287.467 250.751C277.6 251.818 270.133 254.485 264.4 258.885C261.867 260.751 258.933 261.951 257.867 261.551C256.8 261.151 246.133 255.151 234.267 248.351C210.133 234.351 205.333 231.818 207.333 233.818C209.733 236.351 237.733 253.418 251.333 260.751C258.667 264.618 267.733 269.951 271.333 272.485C277.2 276.485 277.6 276.618 274.667 273.551C272.933 271.551 269.333 268.751 266.933 267.151L262.533 264.485L267.333 261.151C273.733 256.751 280.4 254.618 290.667 253.418C300 252.351 303.067 251.285 307.467 247.151C309.733 245.151 313.2 244.485 325.6 243.818C347.6 242.618 352.267 244.085 360.667 254.085C364.267 258.485 367.6 262.085 368.133 262.085C369.333 262.085 352.4 311.551 350.533 313.418C349.733 314.218 339.467 314.618 323.6 314.351C293.6 313.818 294.133 313.951 288.533 298.885C286.267 292.751 283.333 287.818 280.267 284.751C274.933 279.685 256 267.685 226.267 250.618C201.467 236.351 198 233.418 194.8 222.751C190.267 208.218 186.667 186.885 187.867 182.618C188.533 180.485 191.733 173.018 195.2 166.085C200.667 154.751 201.733 151.018 205.333 129.418C209.2 106.351 214 87.6847 217.867 80.8847L219.6 77.6847L221.2 82.218C223.2 88.3514 224.933 102.885 226.667 125.685C227.333 136.085 228.4 145.418 228.8 146.618C229.6 148.751 234.4 150.885 235.6 149.551C238.133 147.018 231.333 105.551 225.333 87.018C221.467 74.8847 221.2 71.418 224 71.418C224.667 71.418 226.4 73.1514 228 75.2847ZM123.867 179.951C135.6 186.085 143.333 215.151 138 233.418C134.933 244.218 127.867 251.418 120.4 251.418C112.8 251.418 105.6 245.818 100 235.285C95.4667 227.018 95.3333 226.351 95.3333 212.085C95.3333 199.551 95.7333 196.618 98.2667 191.951C104.667 179.951 114.667 175.285 123.867 179.951ZM242.133 184.618C249.2 185.951 280.933 190.218 304.667 192.885C326.267 195.418 369.2 195.151 379.733 192.485C384.267 191.418 388.4 190.885 388.8 191.551C389.733 193.151 388 215.285 386.533 220.218C385.2 224.351 380.8 228.485 369.067 236.485C361.733 241.551 361.067 241.551 350.267 237.951C343.067 235.418 340.133 235.151 327.067 235.951C310.533 236.885 293.333 234.351 256.267 225.418C227.2 218.351 226.8 217.951 226.667 199.285C226.667 182.618 227.467 181.818 242.133 184.618ZM208 189.685C206.533 192.485 205.333 195.818 205.333 197.151C205.333 201.551 208.933 208.351 214.133 213.418L219.2 218.618L214.8 215.951C206.267 210.885 201.333 203.818 201.333 196.485C201.333 192.351 206.133 184.751 208.667 184.751C210.4 184.751 210.267 185.551 208 189.685ZM376 248.751L370.4 259.818L365.333 254.751L360.133 249.685L367.733 245.151C371.867 242.618 376.533 239.418 378 237.951C382.4 233.551 381.733 237.285 376 248.751ZM246.667 274.751C258 281.818 268.133 288.351 269.2 289.418C271.6 291.818 277.6 314.351 276.267 315.685C275.6 316.351 274 313.151 272.667 308.751C271.333 304.218 269.733 300.351 269.2 299.951C268.533 299.685 268.4 298.485 268.8 297.551C269.867 294.618 262.667 288.618 246.8 279.418C225.733 267.151 221.467 263.951 221.733 260.885C221.867 258.485 222.133 258.485 224 259.951C225.067 261.018 235.333 267.685 246.667 274.751ZM263.333 276.751C277.333 285.151 279.467 287.685 283.333 300.218C287.467 313.551 292.4 319.018 299.2 317.285C306.533 315.418 343.067 316.085 347.333 318.218C351.867 320.351 354.133 327.818 352.133 334.485C350.933 338.618 350.933 338.618 350.8 332.751C350.667 324.218 348 321.151 340.4 320.218C328.4 318.618 307.467 318.885 302.267 320.618C297.733 322.218 296.8 322.085 291.6 319.018C285.067 315.151 283.733 313.018 279.867 300.085C276.667 289.418 274.533 286.751 262.667 278.351C248 268.085 248.267 267.551 263.333 276.751ZM362 306.885C360.8 313.285 358.667 320.751 357.2 323.285C354.133 328.885 354.133 329.018 359.333 308.218C363.733 290.085 365.333 289.418 362 306.885ZM251.2 323.285C259.867 328.485 267.467 332.751 268.133 332.751C268.667 332.751 272.533 330.085 276.533 326.751C280.667 323.418 284.533 320.751 285.333 320.751C286 320.751 288.933 321.951 291.867 323.551C297.067 326.218 297.6 326.218 302.933 324.218C307.733 322.351 311.333 322.218 326.133 323.151C335.733 323.818 344.267 324.751 345.067 325.285C349.733 328.085 346.8 354.485 341.333 360.085C338.8 362.485 336.933 362.751 321.6 362.751C303.333 362.751 298.933 361.818 288.933 355.418L282.8 351.551L292.4 341.418C297.6 335.818 303.067 330.485 304.667 329.685C306.133 328.885 311.2 327.818 316 327.285L324.667 326.485L314.933 326.351C302.667 326.085 299.867 327.551 291.333 338.618C287.733 343.418 283.6 347.685 282.4 348.085C277.067 349.951 224 312.751 224 307.018C224 306.485 226.533 307.685 229.733 309.818C232.8 311.951 242.4 317.951 251.2 323.285ZM384.533 328.485C384 330.485 382.133 335.018 380.4 338.485C378.533 342.085 376.933 348.485 376.4 353.285C375.867 360.085 374.667 363.151 370.667 368.885C360.267 384.085 331.867 403.418 319.867 403.418C314.533 403.418 306.267 400.751 304.933 398.485C304.533 397.818 308.8 397.285 315.067 397.285C324.8 397.285 327.067 396.885 335.067 392.885C344.533 388.351 346.533 386.218 338.533 389.018C331.333 391.685 296.4 391.285 291.333 388.485C286.4 385.818 266.267 368.751 267.067 367.951C267.333 367.685 272.133 370.485 277.867 374.085C291.067 382.885 296.667 384.751 309.333 384.751C323.333 384.751 332.267 382.885 343.333 377.551C359.867 369.685 369.333 358.218 376.667 337.018C383.467 317.685 382.933 318.618 384.267 321.951C384.8 323.685 384.933 326.618 384.533 328.485ZM233.733 331.018C235.867 333.551 241.733 347.418 240.933 348.218C240.667 348.485 239.067 345.685 237.333 342.085C235.6 338.351 233.067 334.485 231.733 333.151C229.2 330.885 228.533 328.751 230.4 328.751C231.067 328.751 232.533 329.818 233.733 331.018ZM265.733 347.951C296.933 367.951 296.533 367.818 304 368.751L310 369.551L302.667 370.885C297.067 371.951 294.267 371.818 290.8 370.485C284.8 368.085 252.667 347.951 246.933 342.885C242.8 339.285 237.6 331.418 239.467 331.418C239.867 331.418 251.733 338.885 265.733 347.951ZM240.933 353.951C244.933 362.218 247.867 369.285 247.6 369.551C246.933 370.218 232.8 343.151 230.8 337.418C227.733 329.151 233.467 338.351 240.933 353.951ZM375.2 415.685C375.6 417.418 376 419.951 375.867 421.418C375.867 423.285 375.333 422.751 374 419.551C371.733 414.485 371.467 412.751 373.2 412.751C373.867 412.751 374.667 414.085 375.2 415.685Z" fill="black"/>
<path d="M150.4 270.751C153.333 275.151 218.4 346.085 219.6 346.085C220.533 346.085 208.933 332.618 189.2 310.751C166.667 285.818 147.2 265.818 150.4 270.751Z" fill="black"/>
<path d="M94.1334 314.751C90.8001 318.218 93.4667 321.551 99.8667 321.818C105.867 322.218 133.6 329.551 148.4 334.751C153.6 336.485 158 337.818 158.267 337.551C158.8 337.018 124 321.685 112.933 317.551C100.4 312.751 96.6667 312.218 94.1334 314.751Z" fill="black"/>
<path d="M234.8 109.685C234.4 114.351 242.8 153.551 244.933 157.151C246.267 159.551 250.4 163.018 254 165.018C260.4 168.618 283.6 176.751 287.067 176.751C287.867 176.618 282 174.351 273.733 171.685C256.133 165.685 248.533 161.018 245.867 154.485C244.8 151.951 242.133 141.018 239.867 130.351C236 110.751 234.933 106.751 234.8 109.685Z" fill="black"/>
<path d="M295.333 178.751C299.067 179.685 303.467 180.485 305.333 180.485C307.2 180.485 305.067 179.685 300.667 178.618C290.533 176.351 286.4 176.485 295.333 178.751Z" fill="black"/>
<path d="M310.4 181.685C311.2 181.951 312.8 181.951 313.733 181.685C314.533 181.285 313.867 181.018 312 181.018C310.133 181.018 309.467 181.285 310.4 181.685Z" fill="black"/>
<path d="M318.4 183.018C319.2 183.285 320.8 183.285 321.733 183.018C322.533 182.618 321.867 182.351 320 182.351C318.133 182.351 317.467 182.618 318.4 183.018Z" fill="black"/>
<path d="M357.733 184.351C358.933 184.618 360.8 184.618 361.733 184.351C362.533 183.951 361.6 183.685 359.333 183.685C357.2 183.685 356.4 183.951 357.733 184.351Z" fill="black"/>
<path d="M120.267 180.751C121.467 181.551 124.4 184.351 126.533 187.018C128.8 189.818 130.667 191.418 130.667 190.618C130.667 188.485 121.867 179.418 119.867 179.418C118.533 179.551 118.667 179.951 120.267 180.751Z" fill="black"/>
<path d="M105.867 187.285C103.6 188.618 101.067 191.818 100.133 194.218C98.2667 199.551 98.9334 200.618 101.333 196.085C104 191.151 111.067 187.151 115.2 188.218C118.667 189.018 128 198.218 128 200.751C128 201.551 128.667 202.085 129.333 202.085C131.333 202.085 126.267 192.618 122.267 189.018C117.733 184.751 111.067 183.951 105.867 187.285Z" fill="black"/>
<path d="M108.267 193.551C103.333 197.018 100.8 203.285 100.8 212.751C100.8 223.818 104.8 232.751 111.6 236.885C116 239.551 116.667 239.685 119.733 237.951C125.733 234.618 128.533 227.951 128.533 217.418C128.533 206.885 125.333 199.018 119.2 194.218C114.933 190.885 112.267 190.751 108.267 193.551Z" fill="black"/>
<path d="M96 215.418C96 221.018 100 231.818 104.4 237.818C115.2 252.485 127.867 251.285 132.667 234.885C134.933 227.285 135.333 218.085 133.333 218.085C132.667 218.085 132 219.951 132 222.218C132 228.485 129.333 236.485 125.867 240.085C122 244.218 116 244.485 109.867 240.751C105.067 237.685 98.6667 226.351 98.6667 220.885C98.6667 218.885 98 216.485 97.3333 215.418C96.1333 213.685 96 213.685 96 215.418Z" fill="black"/>
<path d="M230.933 199.551C231.333 211.018 231.6 211.951 234.8 214.351C238.4 217.018 263.067 223.418 293.067 229.418C307.867 232.351 312 232.751 326 231.951C340.933 231.151 342.667 231.418 351.067 234.485L360.133 237.818L370.267 231.018C375.733 227.285 381.2 222.885 382.133 221.285C384 218.485 387.333 195.685 386.133 194.351C385.733 194.085 383.6 194.351 381.467 195.151C371.6 198.618 351.6 199.818 329.333 198.218C305.6 196.618 253.333 190.618 244.667 188.751C241.733 188.085 237.333 187.418 234.933 187.418H230.533L230.933 199.551Z" fill="black"/>
<path d="M279.867 328.351L276.667 332.085L280.4 328.885C283.733 325.818 284.667 324.751 283.6 324.751C283.333 324.751 281.733 326.351 279.867 328.351Z" fill="black"/>
<path d="M134.267 397.951C154.533 408.618 172.533 418.885 184 426.351L190 430.218L183.333 424.085C163.733 405.951 138.667 391.951 118.667 388.218C115.733 387.551 121.733 391.285 134.267 397.951Z" fill="black"/>
<path d="M347.467 411.285C344.133 414.885 327.467 422.885 318 425.418C313.733 426.485 306.4 427.418 301.733 427.418C290.8 427.418 289.6 429.685 300.267 430.351C312 431.018 323.333 429.285 331.333 425.551C338.533 422.351 347.2 415.418 349.467 411.285C351.2 408.085 350.4 408.085 347.467 411.285Z" fill="black"/>
<path d="M51.5999 415.018C53.9999 415.285 58.2666 415.285 60.9333 415.018C63.7333 414.751 61.8666 414.485 56.6666 414.485C51.5999 414.485 49.3333 414.751 51.5999 415.018Z" fill="black"/>
<path d="M40.6666 417.418C37.3332 419.018 37.1999 419.285 39.9999 418.618C43.7332 417.685 47.9999 415.551 45.9999 415.551C45.3332 415.551 42.9332 416.351 40.6666 417.418Z" fill="black"/>
<path d="M287.733 416.351C289.333 416.618 292 416.618 293.733 416.351C295.333 416.085 294 415.818 290.667 415.818C287.333 415.818 286 416.085 287.733 416.351Z" fill="black"/>
<path d="M77.9999 420.618C94.2666 428.885 116.4 448.618 130.267 467.285C139.467 479.685 141.467 481.818 137.333 474.751C123.867 451.951 90.6666 422.218 73.3332 417.551C71.4666 417.018 73.5999 418.485 77.9999 420.618Z" fill="black"/>
<path d="M287.733 428.351C288.667 428.751 289.867 428.618 290.267 428.218C290.8 427.818 290 427.418 288.533 427.551C287.067 427.551 286.667 427.951 287.733 428.351Z" fill="black"/>
<path d="M328 470.751C323.2 471.685 314 472.885 307.333 473.551L295.333 474.618L304.267 475.818C313.6 477.151 327.6 474.885 336.667 470.751C341.6 468.618 339.333 468.485 328 470.751Z" fill="black"/>
<path d="M442.8 472.218C442.8 473.685 443.2 474.085 443.6 473.018C444 472.085 443.867 470.885 443.467 470.485C443.067 469.951 442.667 470.751 442.8 472.218Z" fill="black"/>
</svg>
